<svg xmlns="http://www.w3.org/2000/svg" viewBox="0 0 320 120" width="320" height="120" role="img" aria-label="scattered starfield">
  <g fill="#c9defe">
    <circle cx="14" cy="30" r="0.8" opacity="0.6"></circle>
    <circle cx="42" cy="60" r="1.2" opacity="0.85"></circle>
    <circle cx="70" cy="18" r="0.6" opacity="0.5"></circle>
    <circle cx="102" cy="74" r="1" opacity="0.7"></circle>
    <circle cx="140" cy="30" r="1.6" opacity="0.95"></circle>
    <circle cx="168" cy="92" r="0.7" opacity="0.55"></circle>
    <circle cx="196" cy="44" r="1.1" opacity="0.8"></circle>
    <circle cx="226" cy="22" r="0.9" opacity="0.65"></circle>
    <circle cx="252" cy="78" r="1.4" opacity="0.9"></circle>
    <circle cx="286" cy="36" r="0.7" opacity="0.55"></circle>
    <circle cx="304" cy="96" r="1" opacity="0.75"></circle>
    <circle cx="60" cy="100" r="0.8" opacity="0.5"></circle>
    <circle cx="120" cy="54" r="0.5" opacity="0.5"></circle>
    <circle cx="200" cy="108" r="0.6" opacity="0.5"></circle>
    <circle cx="240" cy="48" r="0.5" opacity="0.45"></circle>
  </g>
  
  <g fill="#7cb8ff">
    <path d="M88 48 C88 54 88.6 56 91 56 C88.6 56 88 58 88 64 C88 58 87.4 56 85 56 C87.4 56 88 54 88 48 Z" opacity="0.9"></path>
    <path d="M220 74 C220 78 220.4 79 222 79 C220.4 79 220 80 220 84 C220 80 219.6 79 218 79 C219.6 79 220 78 220 74 Z" opacity="0.85"></path>
    <path d="M160 66 C160 72 160.6 74 163 74 C160.6 74 160 76 160 82 C160 76 159.4 74 157 74 C159.4 74 160 72 160 66 Z" opacity="0.95"></path>
  </g>
</svg>