<svg xmlns="http://www.w3.org/2000/svg" viewBox="0 0 160 160" width="160" height="160" role="img" aria-label="seedling under stars">
  <g fill="none" stroke="#5b9cff" stroke-width="1.5" stroke-linecap="round" stroke-linejoin="round">
    <path d="M20 120 C 40 118 60 120 80 118 C 100 120 120 118 140 120" stroke-dasharray="2 4" stroke-opacity="0.5"></path>
    <path d="M80 120 C 80 100 78 80 80 60"></path>
    <path d="M80 80 C 60 74 48 62 44 48 C 62 52 76 66 80 80 Z"></path>
    <path d="M80 80 C 100 74 112 62 116 48 C 98 52 84 66 80 80 Z"></path>
  </g>
  
  <g fill="#7cb8ff" stroke="none">
    <path d="M80 44 C80 54 80.7 57 85 58 C80.7 59 80 62 80 72 C80 62 79.3 59 75 58 C79.3 57 80 54 80 44 Z"></path>
  </g>
  
  <g fill="#c9defe">
    <circle cx="30" cy="20" r="1" opacity="0.7"></circle>
    <circle cx="130" cy="30" r="0.8" opacity="0.6"></circle>
    <circle cx="50" cy="40" r="0.6" opacity="0.5"></circle>
    <circle cx="120" cy="70" r="0.7" opacity="0.6"></circle>
    <circle cx="25" cy="70" r="0.5" opacity="0.45"></circle>
  </g>
</svg>