<svg xmlns="http://www.w3.org/2000/svg" viewBox="0 0 180 200" width="180" height="200" role="img" aria-label="star-bloom flower">
  <g fill="none" stroke="#5b9cff" stroke-width="1.5" stroke-linecap="round" stroke-linejoin="round">
    
    <path d="M90 190 C 90 150 88 120 92 90"></path>
    
    <path d="M91 150 C 72 146 60 136 56 122 C 74 126 86 136 91 150 Z"></path>
    <path d="M91 125 C 110 120 122 110 126 96 C 108 100 96 110 91 125 Z"></path>
    
    <g transform="translate(92 70)">
      <path d="M0 -30 C 4 -20 4 -12 0 -8 C -4 -12 -4 -20 0 -30 Z"></path>
      <path d="M0 -30 C 4 -20 4 -12 0 -8 C -4 -12 -4 -20 0 -30 Z" transform="rotate(72)"></path>
      <path d="M0 -30 C 4 -20 4 -12 0 -8 C -4 -12 -4 -20 0 -30 Z" transform="rotate(144)"></path>
      <path d="M0 -30 C 4 -20 4 -12 0 -8 C -4 -12 -4 -20 0 -30 Z" transform="rotate(216)"></path>
      <path d="M0 -30 C 4 -20 4 -12 0 -8 C -4 -12 -4 -20 0 -30 Z" transform="rotate(288)"></path>
    </g>
  </g>
  
  <g fill="#7cb8ff" stroke="none">
    <path d="M92 70 C92 62 92.5 60 96 59 C92.5 58 92 56 92 48 C92 56 91.5 58 88 59 C91.5 60 92 62 92 70 Z"></path>
  </g>
  <circle cx="92" cy="59" r="1.5" fill="#f3f5ff"></circle>
</svg>